<?xml version="1.0" encoding="UTF-8"?>
<svg xmlns="http://www.w3.org/2000/svg" viewBox="0 0 498.53 167.22">
  <defs>
    <style>
      .d {
        fill: #231f20;
        stroke-width: 0px;
      }
    </style>
  </defs>
    <g>
      <path class="d" d="m.2,164.6L82.58,1.82c.67-1.32,2.56-1.32,3.23,0l82.39,162.78c.61,1.2-.27,2.62-1.61,2.62h-36.19c-.69,0-1.31-.39-1.62-1l-42.93-86.11c-.67-1.34-2.58-1.33-3.24,0l-24.13,48.94c-.59,1.2.28,2.6,1.61,2.61l38.05.2c1,0,1.8.82,1.8,1.82l-.18,31.74c0,.99-.81,1.8-1.81,1.8H1.81c-1.35,0-2.22-1.42-1.61-2.62Z"/>
      <path class="d" d="m106.25.83h107.6c19.65,0,37.19,13.17,41.79,32.28.77,3.18,1.18,6.49,1.19,9.87.01,3.4-.37,6.74-1.12,9.96-4.51,19.37-22.23,32.79-42.12,32.79h-24.58c-1.54,0-2.53,1.62-1.84,2.99l38.35,75.52c.7,1.37-.3,2.99-1.84,2.99h-35.85c-.78,0-1.49-.44-1.84-1.13l-57.04-113.31c-.69-1.37.31-2.98,1.84-2.98h82.92c3.09,0,5.98-1.9,6.88-4.86.19-.63.3-1.28.31-1.96.01-.69-.08-1.37-.26-2.02-.84-3.05-3.79-5.03-6.95-5.03h-91.8c-.78,0-1.49-.44-1.84-1.13l-15.65-30.98c-.69-1.37.3-2.99,1.84-2.99Z"/>
      <rect class="d" x="268.66" y=".83" width="37.74" height="166.39" rx="1.47" ry="1.47"/>
      <rect class="d" x="313.68" y=".83" width="37.74" height="166.39" rx="1.47" ry="1.47"/>
      <path class="d" d="m458.64,167.22h-93.47c-.18,0-.33-.15-.33-.33v-35.83c0-.18.15-.33.33-.33h91.53c3.1-.07,5.68-2.32,6.14-5.23.41-2.61-.97-5.27-3.43-6.52-23.23-12.43-46.47-24.86-69.7-37.28-7.46-3.99-13.9-9.74-18.37-16.93-3.55-5.71-6.45-13.04-6.49-21.8-.03-6.5,1.52-12.85,4.37-18.64C376.62,9.24,392.32,0,409.14,0h89.07c.18,0,.33.15.33.33v36.18c0,.18-.15.33-.33.33l-89.13-.22c-2.64,0-5.11,1.61-5.88,4.14-.06.2-.12.41-.16.63,0,0-.28,1.41.09,2.92.57,2.32,2.63,3.6,3.37,4.08,3,1.98,30.77,17.15,69.51,37.93,5.88,3.15,11.02,7.53,15.06,12.83h0s.1.14.1.14c4.77,6.29,7.36,13.97,7.36,21.86v6.09c0,11.19-4.48,22.04-12.76,29.57-.41.38-.84.75-1.28,1.12-.07.06-.13.11-.2.17-7.17,6-16.31,9.14-25.66,9.14Z"/>
    </g>
</svg>